<?xml version="1.0" standalone="no"?>
<!DOCTYPE svg PUBLIC "-//W3C//DTD SVG 20010904//EN"
 "http://www.w3.org/TR/2001/REC-SVG-20010904/DTD/svg10.dtd">
<svg version="1.0" xmlns="http://www.w3.org/2000/svg"
 width="262.000000pt" height="262.000000pt" viewBox="0 0 262.000000 262.000000"
 preserveAspectRatio="xMidYMid meet">
<metadata>
Created by potrace 1.11, written by Peter Selinger 2001-2013
</metadata>
<g transform="translate(0.000000,262.000000) scale(0.100000,-0.100000)"
fill="#000000" stroke="none">
<path d="M360 2604 c0 -6 52 -79 380 -534 73 -102 195 -270 270 -375 75 -104
208 -289 295 -410 87 -121 309 -429 493 -685 184 -256 339 -471 344 -478 8 -9
-55 -12 -308 -12 l-319 0 -555 801 c-305 441 -560 809 -567 818 -10 13 -12
-168 -13 -853 l0 -869 68 65 c37 36 83 81 103 99 20 19 94 88 164 154 71 66
147 138 171 160 98 94 161 152 171 158 7 4 93 -111 219 -293 l207 -300 389 0
c213 0 388 3 388 6 0 7 -10 20 -157 224 -49 69 -195 271 -323 450 -129 179
-238 327 -242 328 -14 6 -9 27 10 48 16 16 181 172 327 309 22 20 93 87 159
149 65 61 141 131 167 156 l49 46 -117 161 c-65 89 -183 250 -263 358 -135
183 -194 264 -223 308 -11 16 -53 17 -649 17 -351 0 -638 -3 -638 -6z m1253
-66 c3 -7 129 -182 281 -388 l275 -375 -77 -73 c-75 -71 -271 -256 -342 -322
-19 -18 -84 -78 -143 -134 -59 -55 -112 -101 -117 -101 -7 0 -247 324 -330
445 -8 12 -22 32 -31 44 -9 11 -157 217 -329 456 -172 239 -317 441 -322 448
-8 9 105 12 560 12 446 0 571 -3 575 -12z m-981 -1260 c31 -46 133 -193 227
-328 l171 -245 -72 -69 c-40 -37 -133 -125 -207 -195 -74 -69 -170 -160 -214
-201 -43 -41 -83 -77 -88 -78 -5 -2 -9 284 -9 694 l0 698 68 -97 c37 -53 93
-133 124 -179z"/>
</g>
</svg>
